<svg width="31" height="31" viewBox="0 0 31 31" fill="none" xmlns="http://www.w3.org/2000/svg">
<path d="M15.5 1.39976L19.0803 4.90654C19.449 5.26764 19.943 5.47226 20.459 5.47762L25.4704 5.52963L25.5224 10.541C25.5277 11.057 25.7324 11.551 26.0935 11.9197L29.6002 15.5L26.0935 19.0803C25.7324 19.449 25.5277 19.943 25.5224 20.459L25.4704 25.4704L20.459 25.5224C19.943 25.5277 19.449 25.7324 19.0803 26.0935L15.5 29.6002L11.9197 26.0935C11.551 25.7324 11.057 25.5277 10.541 25.5224L5.52963 25.4704L5.47762 20.459C5.47226 19.943 5.26764 19.449 4.90654 19.0803L1.39976 15.5L4.90654 11.9197C5.26764 11.551 5.47226 11.057 5.47762 10.541L5.52963 5.52963L10.541 5.47762C11.057 5.47226 11.551 5.26764 11.9197 4.90654L15.5 1.39976Z" stroke="#00ADB5" stroke-width="2"/>
</svg>
